<?xml version="1.0" encoding="UTF-8"?>
<svg xmlns="http://www.w3.org/2000/svg" xmlns:xlink="http://www.w3.org/1999/xlink" width="595.2756pt" height="419.5276pt" viewBox="0 0 595.2756 419.5276" version="1.1">
<defs>
<clipPath id="clip1">
  <path d="M 0 0 L 595.277344 0 L 595.277344 419.527344 L 0 419.527344 Z M 0 0 "/>
</clipPath>
</defs>
<g id="surface1">
<g clip-path="url(#clip1)" clip-rule="nonzero">
<path style=" stroke:none;fill-rule:evenodd;fill:rgb(92.939758%,10.978699%,14.118958%);fill-opacity:1;" d="M 0 0 L 595.277344 0 L 595.277344 419.527344 L 0 419.527344 Z M 0 0 "/>
</g>
<path style=" stroke:none;fill-rule:evenodd;fill:rgb(100%,100%,100%);fill-opacity:1;" d="M 107.925781 123.617188 L 199.390625 123.617188 L 199.433594 149.691406 L 151.351563 149.667969 L 151.335938 171.101563 L 196.972656 171.113281 L 197.082031 197.070313 L 151.378906 197.058594 L 151.351563 244.4375 L 118.425781 244.898438 L 107.871094 207.980469 Z M 107.925781 123.617188 "/>
<path style=" stroke:none;fill-rule:evenodd;fill:rgb(100%,100%,100%);fill-opacity:1;" d="M 255.367188 147.765625 C 286.304688 147.765625 311.382813 169.863281 311.382813 197.113281 C 311.382813 224.367188 286.304688 246.464844 255.367188 246.464844 C 224.429688 246.464844 199.351563 224.367188 199.351563 197.113281 C 199.351563 169.863281 224.429688 147.765625 255.367188 147.765625 Z M 255.367188 178.8125 C 264.992188 178.8125 272.792969 187.007813 272.792969 197.113281 C 272.792969 207.222656 264.992188 215.417969 255.367188 215.417969 C 245.742188 215.417969 237.941406 207.222656 237.941406 197.113281 C 237.941406 187.007813 245.742188 178.8125 255.367188 178.8125 "/>
<path style=" stroke:none;fill-rule:evenodd;fill:rgb(100%,100%,100%);fill-opacity:1;" d="M 349.644531 150.785156 C 349.554688 158.894531 349.460938 167.003906 349.371094 175.113281 C 357.535156 157.90625 372.097656 143.75 392.847656 150.785156 L 403.457031 157.820313 C 397.59375 170.019531 392.554688 180.261719 386.691406 192.460938 C 372.125 181.679688 359.320313 183.535156 353 204.894531 L 353.027344 243.320313 L 315.511719 243.292969 L 315.457031 150.808594 Z M 349.644531 150.785156 "/>
<path style=" stroke:none;fill-rule:evenodd;fill:rgb(100%,100%,100%);fill-opacity:1;" d="M 456.191406 123.730469 L 456.21875 150.8125 L 476.171875 150.785156 L 483.214844 174.453125 L 456.238281 174.480469 C 456.214844 185.140625 456.1875 195.796875 456.164063 206.457031 C 461.695313 220.648438 479.480469 211.371094 489.0625 207.222656 C 489.066406 216.617188 489.070313 226.007813 489.074219 235.402344 C 481.222656 242.53125 471.890625 245.632813 461.398438 245.570313 C 441.257813 245.363281 423.136719 245.269531 417.464844 220.632813 L 417.492188 174.3125 L 401.105469 174.324219 L 401.054688 163.628906 L 446.875 123.730469 Z M 456.191406 123.730469 "/>
<path style=" stroke:none;fill-rule:nonzero;fill:rgb(100%,100%,100%);fill-opacity:1;" d="M 106.199219 295.242188 L 108.585938 291.539063 L 123.480469 266.492188 L 125.070313 263.683594 C 125.53125 262.867188 126.167969 261.683594 127 260.136719 C 130.300781 260.171875 132.714844 260.1875 134.230469 260.1875 C 136.878906 260.1875 139.320313 260.171875 141.578125 260.136719 L 145.539063 270.863281 L 153.609375 291.484375 L 155.191406 295.242188 C 151.945313 295.207031 149.976563 295.1875 149.285156 295.1875 C 147.710938 295.1875 145.394531 295.207031 142.332031 295.242188 C 141.542969 292.414063 140.398438 289.089844 138.898438 285.269531 L 124.710938 285.269531 C 123.039063 288.289063 121.300781 291.609375 119.5 295.242188 C 116.015625 295.207031 113.882813 295.1875 113.097656 295.1875 C 111.667969 295.1875 109.367188 295.207031 106.199219 295.242188 Z M 128.222656 277.78125 L 136.972656 277.78125 C 134.878906 271.734375 133.730469 268.398438 133.539063 267.78125 C 132.265625 270.300781 131.179688 272.367188 130.304688 273.980469 Z M 165.03125 295.242188 C 166.089844 286.910156 166.773438 277.738281 167.101563 267.722656 L 155.113281 268.003906 L 155.289063 265.148438 C 155.382813 263.621094 155.464844 261.953125 155.527344 260.136719 C 160.859375 260.171875 167.0625 260.1875 174.148438 260.1875 L 181.105469 260.164063 L 187.855469 260.164063 L 191.515625 260.136719 L 191.304688 262.65625 C 191.210938 264.007813 191.148438 265.125 191.105469 266 C 191.066406 266.886719 191.046875 267.554688 191.042969 268.003906 C 187.03125 267.816406 183.71875 267.722656 181.113281 267.722656 L 179.144531 267.722656 C 178.824219 270.75 178.5625 273.550781 178.386719 276.113281 C 178.125 279.792969 177.910156 283.367188 177.757813 286.832031 C 177.59375 290.300781 177.496094 293.101563 177.46875 295.242188 C 174.394531 295.207031 172.40625 295.1875 171.503906 295.1875 C 170.699219 295.1875 168.535156 295.207031 165.03125 295.242188 Z M 186.359375 295.242188 L 188.742188 291.539063 L 203.640625 266.492188 L 205.226563 263.683594 C 205.6875 262.867188 206.328125 261.683594 207.15625 260.136719 C 210.460938 260.171875 212.871094 260.1875 214.386719 260.1875 C 217.039063 260.1875 219.480469 260.171875 221.734375 260.136719 L 225.699219 270.863281 L 233.769531 291.484375 L 235.347656 295.242188 C 232.105469 295.207031 230.132813 295.1875 229.441406 295.1875 C 227.867188 295.1875 225.554688 295.207031 222.488281 295.242188 C 221.703125 292.414063 220.558594 289.089844 219.054688 285.269531 L 204.871094 285.269531 C 203.195313 288.289063 201.457031 291.609375 199.660156 295.242188 C 196.175781 295.207031 194.042969 295.1875 193.253906 295.1875 C 191.824219 295.1875 189.527344 295.207031 186.359375 295.242188 Z M 208.382813 277.78125 L 217.132813 277.78125 C 215.035156 271.734375 213.890625 268.398438 213.699219 267.78125 C 212.421875 270.300781 211.339844 272.367188 210.460938 273.980469 Z M 270.011719 286.671875 C 269.773438 287.683594 269.476563 289.097656 269.136719 290.90625 C 268.792969 292.714844 268.5625 294.117188 268.433594 295.109375 C 264.410156 295.648438 260.824219 295.910156 257.671875 295.910156 C 254.628906 295.910156 251.8125 295.558594 249.199219 294.867188 C 246.59375 294.171875 244.210938 293.03125 242.042969 291.449219 C 239.882813 289.859375 238.347656 288 237.441406 285.859375 C 236.535156 283.707031 236.09375 281.3125 236.132813 278.652344 C 236.171875 275.550781 236.847656 272.761719 238.148438 270.285156 C 239.449219 267.808594 241.292969 265.738281 243.691406 264.085938 C 246.085938 262.429688 248.703125 261.25 251.546875 260.539063 C 254.390625 259.828125 257.316406 259.46875 260.339844 259.46875 C 263.113281 259.46875 266.539063 259.792969 270.621094 260.441406 L 270.652344 262.601563 C 270.675781 263.550781 270.71875 264.585938 270.769531 265.71875 L 270.933594 268.652344 C 268.75 268.167969 266.976563 267.84375 265.613281 267.667969 C 264.253906 267.5 262.996094 267.414063 261.832031 267.414063 C 259.308594 267.414063 257.015625 267.878906 254.976563 268.800781 C 252.949219 269.730469 251.335938 271.074219 250.148438 272.839844 C 248.960938 274.605469 248.347656 276.5625 248.320313 278.703125 C 248.292969 280.660156 248.757813 282.328125 249.707031 283.734375 C 250.667969 285.128906 251.96875 286.207031 253.621094 286.972656 C 255.269531 287.738281 257.3125 288.113281 259.75 288.113281 C 261.074219 288.113281 262.527344 288.019531 264.097656 287.816406 C 265.667969 287.625 267.640625 287.238281 270.011719 286.671875 Z M 268.5625 295.242188 L 270.949219 291.539063 L 285.84375 266.492188 L 287.429688 263.683594 C 287.890625 262.867188 288.535156 261.683594 289.359375 260.136719 C 292.664063 260.171875 295.078125 260.1875 296.59375 260.1875 C 299.246094 260.1875 301.683594 260.171875 303.941406 260.136719 L 307.902344 270.863281 L 315.972656 291.484375 L 317.554688 295.242188 C 314.304688 295.207031 312.339844 295.1875 311.648438 295.1875 C 310.074219 295.1875 307.757813 295.207031 304.691406 295.242188 C 303.90625 292.414063 302.761719 289.089844 301.257813 285.269531 L 287.074219 285.269531 C 285.398438 288.289063 283.660156 291.609375 281.867188 295.242188 C 278.378906 295.207031 276.246094 295.1875 275.457031 295.1875 C 274.027344 295.1875 271.734375 295.207031 268.5625 295.242188 Z M 290.585938 277.78125 L 299.335938 277.78125 C 297.238281 271.734375 296.09375 268.398438 295.902344 267.78125 C 294.628906 270.300781 293.542969 272.367188 292.667969 273.980469 Z M 318.894531 295.242188 C 319.359375 291.335938 319.683594 288.203125 319.871094 285.859375 C 320.136719 282.355469 320.429688 277.835938 320.730469 272.277344 C 320.960938 268.019531 321.078125 264.980469 321.105469 263.148438 L 321.148438 260.136719 C 323.347656 260.1875 325.234375 260.214844 326.832031 260.214844 C 328.367188 260.214844 330.386719 260.171875 332.886719 260.101563 C 335.382813 260.023438 337.726563 259.976563 339.925781 259.976563 C 342.433594 259.976563 344.636719 260.121094 346.527344 260.390625 C 348.414063 260.671875 350.175781 261.234375 351.804688 262.09375 C 353.433594 262.945313 354.792969 264.070313 355.890625 265.457031 C 356.972656 266.851563 357.796875 268.476563 358.347656 270.335938 C 358.90625 272.199219 359.167969 274.113281 359.140625 276.078125 C 359.113281 278.019531 358.867188 279.890625 358.390625 281.679688 C 357.917969 283.472656 357.257813 285.085938 356.433594 286.523438 C 355.605469 287.964844 354.648438 289.203125 353.558594 290.238281 C 352.46875 291.273438 351.21875 292.160156 349.820313 292.898438 C 348.777344 293.453125 347.734375 293.882813 346.683594 294.191406 C 345.621094 294.496094 344.1875 294.742188 342.363281 294.9375 C 340.332031 295.136719 338.035156 295.242188 335.46875 295.242188 L 324.101563 295.164063 C 323.035156 295.164063 321.296875 295.1875 318.894531 295.242188 Z M 331.160156 287.5 C 332.183594 287.585938 333.269531 287.632813 334.394531 287.632813 C 336.304688 287.632813 338.007813 287.472656 339.519531 287.164063 C 341.023438 286.859375 342.347656 286.199219 343.496094 285.191406 C 344.640625 284.171875 345.496094 282.875 346.0625 281.292969 C 346.636719 279.703125 346.925781 278.082031 346.949219 276.421875 C 346.976563 274.375 346.597656 272.65625 345.808594 271.257813 C 345.023438 269.863281 343.960938 268.890625 342.632813 268.34375 C 341.296875 267.792969 339.476563 267.519531 337.171875 267.519531 C 335.816406 267.519531 334.21875 267.570313 332.386719 267.667969 Z M 361.859375 295.242188 C 363.136719 281.476563 363.828125 270.882813 363.929688 263.453125 L 363.949219 260.136719 C 367.234375 260.171875 369.421875 260.1875 370.527344 260.1875 C 371.039063 260.1875 373.054688 260.171875 376.578125 260.136719 C 376.1875 263.992188 375.871094 267.644531 375.609375 271.09375 C 375.285156 275.894531 375.039063 280.378906 374.867188 284.558594 C 374.695313 288.726563 374.597656 292.292969 374.554688 295.242188 L 368.785156 295.1875 C 367.660156 295.1875 365.347656 295.207031 361.859375 295.242188 Z M 379.445313 294.699219 C 379.25 291.046875 379.011719 288.125 378.726563 285.929688 C 380.816406 286.789063 382.679688 287.386719 384.316406 287.71875 C 385.945313 288.050781 387.382813 288.21875 388.621094 288.21875 C 390.257813 288.21875 391.566406 288 392.53125 287.5625 C 393.507813 287.132813 393.996094 286.480469 394.007813 285.621094 C 394.011719 285.332031 393.96875 285.050781 393.878906 284.785156 C 393.792969 284.523438 393.617188 284.226563 393.359375 283.882813 C 393.097656 283.550781 392.726563 283.191406 392.253906 282.796875 L 387.019531 278.578125 C 385.792969 277.613281 384.9375 276.921875 384.453125 276.492188 C 383.476563 275.621094 382.710938 274.808594 382.171875 274.050781 C 381.628906 273.296875 381.234375 272.53125 380.992188 271.75 C 380.746094 270.96875 380.632813 270.144531 380.644531 269.265625 C 380.660156 268.222656 380.875 267.195313 381.292969 266.195313 C 381.710938 265.191406 382.328125 264.253906 383.144531 263.375 C 383.964844 262.507813 385.039063 261.753906 386.386719 261.109375 C 387.722656 260.480469 389.15625 260.046875 390.675781 259.820313 C 392.199219 259.582031 393.765625 259.46875 395.378906 259.46875 C 398.550781 259.46875 401.992188 259.804688 405.71875 260.46875 C 405.761719 261.65625 405.8125 262.734375 405.867188 263.726563 C 405.929688 264.710938 406.085938 266.4375 406.332031 268.90625 C 404.613281 268.273438 403.054688 267.835938 401.625 267.582031 C 400.207031 267.335938 398.980469 267.210938 397.953125 267.210938 C 396.492188 267.210938 395.269531 267.457031 394.300781 267.957031 C 393.324219 268.449219 392.835938 269.074219 392.824219 269.808594 C 392.820313 270.152344 392.894531 270.484375 393.03125 270.8125 C 393.183594 271.136719 393.457031 271.515625 393.863281 271.953125 C 394.269531 272.390625 394.808594 272.875 395.472656 273.390625 C 396.136719 273.917969 397.195313 274.691406 398.621094 275.71875 L 400.628906 277.183594 C 401.214844 277.632813 401.851563 278.175781 402.542969 278.808594 C 403.226563 279.441406 403.816406 280.0625 404.316406 280.6875 C 404.816406 281.300781 405.191406 281.871094 405.464844 282.382813 C 405.726563 282.902344 405.917969 283.417969 406.046875 283.9375 C 406.164063 284.460938 406.222656 285.023438 406.214844 285.621094 C 406.195313 287.164063 405.769531 288.632813 404.945313 290.039063 C 404.117188 291.433594 402.960938 292.582031 401.46875 293.476563 C 399.96875 294.382813 398.335938 295.003906 396.554688 295.363281 C 394.78125 295.726563 392.90625 295.910156 390.9375 295.910156 C 387.902344 295.910156 384.066406 295.507813 379.445313 294.699219 Z M 418.515625 295.242188 C 419.574219 286.910156 420.257813 277.738281 420.589844 267.722656 L 408.597656 268.003906 L 408.773438 265.148438 C 408.871094 263.621094 408.949219 261.953125 409.011719 260.136719 C 414.34375 260.171875 420.550781 260.1875 427.636719 260.1875 L 434.589844 260.164063 L 441.339844 260.164063 L 445 260.136719 L 444.792969 262.65625 C 444.699219 264.007813 444.636719 265.125 444.59375 266 C 444.550781 266.886719 444.535156 267.554688 444.527344 268.003906 C 440.515625 267.816406 437.203125 267.722656 434.601563 267.722656 L 432.628906 267.722656 C 432.3125 270.75 432.050781 273.550781 431.871094 276.113281 C 431.609375 279.792969 431.398438 283.367188 431.242188 286.832031 C 431.078125 290.300781 430.984375 293.101563 430.953125 295.242188 C 427.878906 295.207031 425.890625 295.1875 424.988281 295.1875 C 424.183594 295.1875 422.019531 295.207031 418.515625 295.242188 Z M 439.84375 295.242188 L 442.230469 291.539063 L 457.125 266.492188 L 458.710938 263.683594 C 459.171875 262.867188 459.816406 261.683594 460.640625 260.136719 C 463.945313 260.171875 466.355469 260.1875 467.871094 260.1875 C 470.527344 260.1875 472.964844 260.171875 475.222656 260.136719 L 479.183594 270.863281 L 487.253906 291.484375 L 488.835938 295.242188 C 485.585938 295.207031 483.621094 295.1875 482.929688 295.1875 C 481.351563 295.1875 479.039063 295.207031 475.972656 295.242188 C 475.1875 292.414063 474.042969 289.089844 472.539063 285.269531 L 458.355469 285.269531 C 456.679688 288.289063 454.941406 291.609375 453.144531 295.242188 C 449.660156 295.207031 447.527344 295.1875 446.738281 295.1875 C 445.308594 295.1875 443.015625 295.207031 439.84375 295.242188 Z M 461.867188 277.78125 L 470.617188 277.78125 C 468.519531 271.734375 467.375 268.398438 467.183594 267.78125 C 465.90625 270.300781 464.824219 272.367188 463.949219 273.980469 Z M 461.867188 277.78125 "/>
</g>
</svg>
