<?xml version="1.0" encoding="UTF-8" standalone="no"?>
<!-- Created with Inkscape (http://www.inkscape.org/) -->

<svg
   width="221.09201mm"
   height="126.99999mm"
   viewBox="0 0 221.09201 126.99999"
   version="1.1"
   id="svg1"
   inkscape:version="1.4.2 (f4327f4, 2025-05-13)"
   sodipodi:docname="Havan logo.svg"
   xmlns:inkscape="http://www.inkscape.org/namespaces/inkscape"
   xmlns:sodipodi="http://sodipodi.sourceforge.net/DTD/sodipodi-0.dtd"
   xmlns="http://www.w3.org/2000/svg"
   xmlns:svg="http://www.w3.org/2000/svg">
  <sodipodi:namedview
     id="namedview1"
     pagecolor="#ffffff"
     bordercolor="#000000"
     borderopacity="0.25"
     inkscape:showpageshadow="2"
     inkscape:pageopacity="0.0"
     inkscape:pagecheckerboard="0"
     inkscape:deskcolor="#d1d1d1"
     inkscape:document-units="mm"
     inkscape:zoom="0.50835204"
     inkscape:cx="426.86954"
     inkscape:cy="58.030651"
     inkscape:window-width="1920"
     inkscape:window-height="1009"
     inkscape:window-x="-8"
     inkscape:window-y="-8"
     inkscape:window-maximized="1"
     inkscape:current-layer="layer1" />
  <defs
     id="defs1" />
  <g
     inkscape:label="Layer 1"
     inkscape:groupmode="layer"
     id="layer1"
     transform="translate(201.61249,142.34582)">
    <path
       class="cls-1"
       d="m -90.044896,-88.957863 c 30.216937,0 55.460851,-13.011567 54.982725,-27.148737 -0.436776,-14.083 -24.707811,-26.23922 -54.982725,-26.23922 -30.328264,0 -55.350314,11.67308 -55.350314,26.23922 0,14.62918 25.0205,27.148737 55.350314,27.148737 m -0.209887,-50.965207 c 27.69912,0 50.375349,10.7512 50.634713,23.98191 0.218386,13.21914 -22.66812,24.618509 -50.425221,24.618509 -27.818549,0 -51.393069,-11.986869 -50.902949,-24.998839 0.42865,-13.01237 22.87838,-23.60158 50.693073,-23.60158 m -3.539794,40.005293 c -1.664759,-0.165043 -3.057786,-0.437953 -3.527416,-0.863873 -0.762234,-0.65324 -1.1333,-1.88586 -1.1333,-3.60553 v -8.7049 h 16.450107 v 8.70335 c 0,1.71967 -0.379188,2.95229 -1.079569,3.60553 -0.527602,0.42516 -1.870779,0.69883 -3.527425,0.863868 v 2.043584 h 15.370922 v -2.043584 c -1.710371,-0.165038 -3.049679,-0.437898 -3.53206,-0.863868 -0.749857,-0.65324 -1.124787,-1.88586 -1.124787,-3.60553 v -22.52583 c 0,-1.77804 0.37493,-2.95695 1.124787,-3.61014 0.482381,-0.42522 1.821689,-0.69577 3.53206,-0.85038 v -2.0505 h -15.370531 v 2.0505 c 1.656639,0.15732 2.999817,0.42516 3.527421,0.85038 0.700383,0.65319 1.079563,1.8317 1.079563,3.61014 v 8.71574 h -16.450099 v -8.71574 c 0,-1.77804 0.371063,-2.95695 1.133293,-3.61014 0.469632,-0.42522 1.862659,-0.69577 3.527421,-0.85038 v -2.0505 h -15.374396 v 2.0505 c 1.65664,0.15732 3.05354,0.42516 3.53167,0.85038 0.74986,0.65319 1.12092,1.8317 1.12092,3.61014 v 22.52583 c 0,1.71967 -0.37068,2.95229 -1.12092,3.60553 -0.47813,0.42516 -1.87503,0.69883 -3.53167,0.863868 v 2.043584 h 15.374396 v -2.043584 z m -99.988479,67.206574 c -0.58906,0.537253 -2.24996,0.914121 -4.29351,1.124397 v 2.473768 h 18.76963 v -2.473768 c -2.04394,-0.210276 -3.7087,-0.587144 -4.30164,-1.124397 -0.9149,-0.75219 -1.33505,-2.203205 -1.33505,-4.349933 v -10.59813 h 20.09232 v 10.596967 c 0,2.146347 -0.48625,3.597764 -1.39149,4.349951 -0.58868,0.537253 -2.25421,0.914121 -4.28115,1.124397 v 2.473748 h 18.74876 v -2.473748 c -2.03969,-0.210276 -3.68783,-0.587144 -4.28501,-1.124397 -0.9149,-0.752187 -1.34781,-2.203202 -1.34781,-4.349951 V -64.44216 c 0,-2.142536 0.43291,-3.597405 1.34781,-4.406366 0.59718,-0.529566 2.24532,-0.909909 4.28501,-1.066822 v -2.484989 h -18.7503 v 2.484989 c 2.02693,0.156913 3.69247,0.537256 4.28114,1.066822 0.90679,0.81167 1.39149,2.265397 1.39149,4.406366 v 10.538947 h -20.09077 V -64.44216 c 0,-2.142536 0.42015,-3.597405 1.33505,-4.406366 0.59294,-0.529566 2.2577,-0.909909 4.30164,-1.066822 v -2.484989 h -18.76963 v 2.484989 c 2.04355,0.156913 3.70445,0.537256 4.29351,1.066822 0.91491,0.81167 1.40154,2.265397 1.40154,4.406366 v 27.379861 c 0,2.146347 -0.48663,3.597764 -1.40154,4.349951 m 67.83505,-39.689495 -15.38368,35.339544 c -0.90652,2.146242 -1.97371,3.596197 -3.20158,4.349951 -0.86118,0.537253 -2.68673,0.914121 -4.83812,1.124397 v 2.473748 h 18.76383 v -2.473748 c -1.92876,-0.210276 -3.42847,-0.587144 -3.79954,-1.124397 -0.60143,-0.752187 -0.38652,-2.203202 0.52761,-4.349951 l 1.50744,-3.394094 h 14.57932 l 1.43401,3.394094 c 0.91065,2.146347 1.1329,3.597764 0.58945,4.349951 -0.42866,0.537253 -1.87078,0.914121 -3.84901,1.124397 l -0.0576,2.473748 h 18.80713 v -2.473748 c -2.14715,-0.210276 -3.95222,-0.587144 -4.76778,-1.124397 -1.23225,-0.752187 -2.35317,-2.203202 -3.26768,-4.349951 l -15.38368,-35.339544 h -1.66205 z m -3.74581,25.710038 c 1.55383,-3.547491 3.05354,-7.041705 4.59462,-10.539753 1.50745,3.498048 3.06553,6.992262 4.56563,10.539753 h -9.16063 z m 32.034379,-23.22511 v -2.484928 h -18.741029 v 2.484928 c 2.13477,0.156936 3.9039,0.537256 4.75928,1.066842 1.22799,0.811716 2.30794,2.265377 3.26768,4.406346 l 15.383673,35.32838 h 1.664759 l 15.328792,-35.32838 c 0.902923,-2.142472 1.971276,-3.597341 3.20197,-4.406346 0.861175,-0.529543 2.68248,-0.909906 4.775509,-1.066842 v -2.484928 h -18.762284 l 0.04985,2.484928 c 1.940738,0.156936 3.440072,0.537299 3.807655,1.066842 0.541133,0.811716 0.378792,2.265377 -0.53186,4.406346 -2.406498,5.436891 -4.816868,10.977328 -7.128669,16.465952 l -1.12904,2.575412 -0.469627,1.07529 -0.437158,-1.07529 -1.120922,-2.575412 c -2.410365,-5.488624 -4.821116,-11.027919 -7.182018,-16.465952 -0.96631,-2.142472 -1.13328,-3.597341 -0.58945,-4.406346 0.37493,-0.529543 1.8789,-0.909906 3.852878,-1.066842 m 44.95667,38.328964 v 2.473748 h 18.770017 v -2.473748 c -2.155259,-0.210276 -3.910854,-0.587144 -4.775898,-1.124397 -1.232243,-0.752187 -2.299431,-2.203202 -3.271929,-4.349951 l -15.324921,-35.339544 h -1.700712 l -15.333038,35.339544 c -0.966312,2.146347 -2.044329,3.597764 -3.271932,4.349951 -0.853442,0.537253 -2.628364,0.914121 -4.772029,1.124397 v 2.473748 h 18.75262 v -2.473748 c -1.973977,-0.210276 -3.47872,-0.587144 -3.86138,-1.124397 -1.281328,-1.778054 1.244611,-5.858987 2.048579,-7.744045 h 14.571979 c 0.799717,1.885058 3.321403,5.966393 2.035435,7.744045 -0.378794,0.537253 -1.87039,0.914121 -3.865242,1.124397 m -10.010989,-15.103854 c 1.49585,-3.547491 3.053546,-7.041705 4.565633,-10.539753 1.536817,3.498048 3.045426,6.992262 4.594616,10.539753 h -9.160635 z m 35.203488,13.980602 c -0.585195,0.537253 -2.087234,0.914121 -3.964189,1.124397 v 2.473768 h 17.247906 v -2.473768 c -1.874656,-0.210276 -3.428481,-0.587144 -3.955712,-1.124397 -0.865031,-0.75219 -1.24035,-2.203205 -1.24035,-4.349933 v -21.774497 c 7.726622,9.840928 16.0214299,19.569727 23.2529162,29.720245 h 6.9188078 v -35.328339 c 0,-2.142513 0.425159,-3.597405 1.232243,-4.406346 0.585562,-0.529586 2.084897,-0.909906 3.959937,-1.066842 v -2.484928 H -1.3054582 v 2.484928 c 1.87465336,0.156936 3.428478,0.537256 3.9595701,1.066842 0.8039756,0.811652 1.2407393,2.265377 1.2407393,4.406346 v 24.577951 C -4.6268457,-50.731362 -13.156673,-61.527787 -21.674119,-72.401843 h -9.799176 v 2.484928 c 1.875035,0.156936 3.379004,0.537256 3.9642,1.066842 0.80745,0.811716 1.240736,2.265377 1.240736,4.406346 v 27.379882 c 0,2.146325 -0.433286,3.597743 -1.240736,4.349932 M -201.61249,-78.095744 H 19.479517 v -8.124775 H -201.61249 Z m 0,62.749918 H 19.479517 v -8.125127 H -201.61249 Z"
       id="path8"
       style="fill:#00275e;fill-opacity:1;fill-rule:evenodd;stroke-width:1.50949"
       inkscape:connector-curvature="0"
       sodipodi:nodetypes="ccsscccsccccsccsccccccssccccccsccsccccccssccccccccccccsccsccccccssccccccsccsccccccssccccccccccccccccccccccccccccccccccccccccccccccccccccccccccccccccccccccccccccccccccscccsccccccscccccssccccccccccc"
       inkscape:export-filename="G:\Users\suitedoalex\sites\havan-logo-6.png"
       inkscape:export-xdpi="11.767036"
       inkscape:export-ydpi="11.767036" />
  </g>
</svg>
