<?xml version="1.0" encoding="UTF-8"?>
<svg version="1.1" xmlns="http://www.w3.org/2000/svg" width="985" height="984">
<path d="M0 0 C0.66433674 -0.00282738 1.32867348 -0.00565475 2.01314163 -0.00856781 C5.54489765 -0.02342882 9.07661436 -0.03273456 12.60839844 -0.03710938 C15.44674896 -0.04144384 18.28478686 -0.05515652 21.12304688 -0.078125 C48.04091041 -0.29109835 74.58885756 1.41413778 101.1640625 5.953125 C101.92379364 6.08006744 102.68352478 6.20700989 103.46627808 6.33779907 C160.47196952 15.90049372 214.89763441 35.38344551 265.5390625 63.203125 C266.2206543 63.57518066 266.90224609 63.94723633 267.60449219 64.33056641 C278.03803874 70.08332736 287.93595284 76.67544513 297.8515625 83.265625 C298.48963837 83.68883026 299.12771423 84.11203552 299.78512573 84.54806519 C308.24913062 90.17334497 316.47695486 96.01011629 324.5390625 102.203125 C325.20558838 102.71190186 325.87211426 103.22067871 326.55883789 103.74487305 C341.8091228 115.44576493 356.57835978 127.9851244 370.03125 141.73046875 C371.45426812 143.12030769 372.9952719 144.38629514 374.5390625 145.640625 C377.58679002 148.24389226 380.04042727 150.99937258 382.62890625 154.04296875 C384.63325465 156.30964496 386.744834 158.40675764 388.9140625 160.515625 C393.06872304 164.61385552 396.72725346 168.98583006 400.37109375 173.5390625 C402.2767348 175.88076916 404.24486263 178.10821823 406.2890625 180.328125 C432.16376627 209.18047325 452.15522608 243.7867009 469.5390625 278.203125 C469.97605469 279.06631348 470.41304687 279.92950195 470.86328125 280.81884766 C488.16634874 315.28522709 500.52359884 352.51487659 508.5390625 390.203125 C508.89025146 391.84958008 508.89025146 391.84958008 509.24853516 393.52929688 C512.11218136 407.25357135 514.14884619 421.03774147 515.7890625 434.953125 C515.87223724 435.6570639 515.95541199 436.36100281 516.04110718 437.08627319 C518.14132317 455.09713644 518.74427915 472.89558847 518.7265625 491.015625 C518.72565613 492.7227919 518.72565613 492.7227919 518.72473145 494.46444702 C518.70114864 510.80517289 518.46025977 526.95883395 516.5390625 543.203125 C516.41547363 544.32638184 516.29188477 545.44963867 516.16455078 546.60693359 C506.21562645 635.71311767 471.51727797 720.39972257 394.91796875 816.61328125 C393.64906265 817.99470119 392.38626593 819.38281027 391.17114258 820.81176758 C385.74548266 827.18299212 379.83843451 833.05499044 373.91479492 838.95776367 C372.10545317 840.76174585 370.30151931 842.57101165 368.49804688 844.38085938 C362.6818401 850.20072146 356.8441128 855.90761964 350.5390625 861.203125 C349.52904062 862.07968481 348.51987948 862.95723775 347.51171875 863.8359375 C338.7823339 871.31157177 329.74883091 878.33031502 320.5390625 885.203125 C319.82621094 885.73695801 319.11335937 886.27079102 318.37890625 886.82080078 C299.83488869 900.64888284 280.27961141 912.68213637 260.02490234 923.83105469 C257.93383851 924.98522663 255.85364898 926.15555252 253.77734375 927.3359375 C188.67324419 963.47967686 108.93749845 984.11140902 34.4609375 984.40625 C33.26292007 984.41326431 32.06490265 984.42027863 30.83058167 984.42750549 C26.98336985 984.4449082 23.13631224 984.45135846 19.2890625 984.453125 C17.31237076 984.45413712 17.31237076 984.45413712 15.29574585 984.45516968 C-5.13564381 984.44757388 -25.19512329 983.88866918 -45.4609375 981.203125 C-47.39718994 980.95369141 -47.39718994 980.95369141 -49.37255859 980.69921875 C-137.07659321 969.1912409 -221.66187625 934.75161321 -291.4609375 880.203125 C-292.81638672 879.14931641 -292.81638672 879.14931641 -294.19921875 878.07421875 C-304.61972669 869.84750196 -314.65720017 861.15170768 -324.4609375 852.203125 C-325.37101563 851.38585937 -326.28109375 850.56859375 -327.21875 849.7265625 C-337.56146574 840.37674747 -347.87467052 830.73430947 -356.875 820.06640625 C-358.76285157 817.84841315 -360.73796542 815.72070345 -362.7109375 813.578125 C-367.79568352 807.94181331 -372.42615125 801.99197875 -377.06689453 795.99121094 C-378.40043239 794.2807326 -379.75220104 792.58704499 -381.11328125 790.8984375 C-399.49193488 768.03016071 -414.87071541 743.16498647 -428.4609375 717.203125 C-428.99219238 716.19121094 -429.52344727 715.17929687 -430.07080078 714.13671875 C-461.4609375 653.94820593 -461.4609375 653.94820593 -461.4609375 635.203125 C-444.9609375 635.203125 -428.4609375 635.203125 -411.4609375 635.203125 C-409.8109375 639.163125 -408.1609375 643.123125 -406.4609375 647.203125 C-386.5158265 694.62893486 -360.45288434 737.61549825 -325.7265625 775.69140625 C-324.46067017 777.09480068 -323.2017822 778.50489978 -321.97045898 779.9387207 C-317.22299825 785.45919982 -312.18295157 790.63069956 -307.0234375 795.765625 C-306.21583984 796.57708984 -305.40824219 797.38855469 -304.57617188 798.22460938 C-299.70012346 803.09279953 -294.69729642 807.72700576 -289.4609375 812.203125 C-288.37788745 813.15248482 -287.29580764 814.102953 -286.21484375 815.0546875 C-254.80583921 842.45268057 -219.58080431 864.44719444 -182.4609375 883.203125 C-181.66252441 883.60772949 -180.86411133 884.01233398 -180.04150391 884.42919922 C-97.48302852 925.89410065 2.11800178 941.47774683 93.5390625 929.203125 C94.26383789 929.10602234 94.98861328 929.00891968 95.73535156 928.90887451 C129.11176526 924.37251039 161.59647465 916.91427257 193.5390625 906.203125 C194.59319336 905.85169434 195.64732422 905.50026367 196.73339844 905.13818359 C239.72564927 890.64770282 281.34793102 870.23245231 318.5390625 844.203125 C319.0973877 843.81527832 319.65571289 843.42743164 320.23095703 843.02783203 C337.67538925 830.88761763 354.32304941 817.79151755 370.02734375 803.46875 C371.40617303 802.22501597 372.79146667 800.98787283 374.2043457 799.78295898 C379.93015395 794.88193716 385.27027627 789.62464443 390.5847168 784.2878418 C392.0989883 782.76820832 393.6185368 781.25399983 395.13867188 779.74023438 C400.48218126 774.40070585 405.65657625 768.9720126 410.5390625 763.203125 C411.41600341 762.19343398 412.29356711 761.18428339 413.171875 760.17578125 C435.01217635 734.67260804 453.83338118 706.87694266 469.5390625 677.203125 C469.97428223 676.38328125 470.40950195 675.5634375 470.85791016 674.71875 C513.03868076 594.5768037 526.0557691 500.79844427 498.25390625 376.69140625 C482.24378857 326.49221078 457.264988 280.45353556 424.5390625 239.203125 C424.11399414 238.66623047 423.68892578 238.12933594 423.25097656 237.57617188 C418.65474413 231.79826412 413.85610169 226.23383262 408.875 220.78515625 C407.62646736 219.40508924 406.38336853 218.01934177 405.18041992 216.59936523 C399.75293629 210.22621556 393.84027792 204.35309647 387.91479492 198.44848633 C386.10545317 196.64450415 384.30151931 194.83523835 382.49804688 193.02539062 C376.68137945 187.20511777 370.84015366 181.50398405 364.5390625 176.203125 C363.57484375 175.3575 362.610625 174.511875 361.6171875 173.640625 C334.32398906 150.11720535 304.04516549 130.53823778 272.5390625 113.203125 C271.73533203 112.75727051 270.93160156 112.31141602 270.10351562 111.85205078 C204.55642858 75.63965201 124.74917486 53.29454203 49.48828125 53 C48.28310852 52.99303101 47.07793579 52.98606201 45.83624268 52.97888184 C41.96631335 52.9615812 38.09652889 52.95516159 34.2265625 52.953125 C33.23787107 52.95224129 33.23787107 52.95224129 32.22920609 52.95133972 C11.80819728 52.93845505 -8.21430798 53.39467321 -28.4609375 56.203125 C-29.56872559 56.34766113 -30.67651367 56.49219727 -31.81787109 56.64111328 C-110.02615732 66.95843723 -184.74775217 96.77833721 -248.4609375 143.203125 C-249.14285156 143.698125 -249.82476562 144.193125 -250.52734375 144.703125 C-260.22959682 151.7726984 -269.47778058 159.24155962 -278.4609375 167.203125 C-279.34265625 167.98429688 -280.224375 168.76546875 -281.1328125 169.5703125 C-283.58821407 171.76766231 -286.02627344 173.98283388 -288.4609375 176.203125 C-289.40453125 177.05390625 -290.348125 177.9046875 -291.3203125 178.78125 C-300.45937102 187.0482894 -309.52231281 195.51248554 -317.51171875 204.9140625 C-319.09398967 206.77220029 -320.69683391 208.6043305 -322.31640625 210.4296875 C-344.07282167 235.05088573 -362.75176259 262.23641828 -378.34228516 291.14208984 C-379.36875173 293.03327947 -380.41601776 294.91071211 -381.47265625 296.78515625 C-387.53320758 307.73840419 -392.41824004 319.19578956 -397.35107422 330.69213867 C-398.32679109 332.89962833 -399.35961095 335.05613574 -400.4609375 337.203125 C-402.45433038 335.40907141 -403.73217511 333.76110815 -405.1484375 331.453125 C-410.27840521 324.24344065 -416.76163537 319.22816916 -425.4609375 317.203125 C-433.512752 316.30539396 -440.18346322 316.78731011 -447.47265625 320.42578125 C-449.4609375 321.203125 -449.4609375 321.203125 -452.4609375 320.203125 C-437.19156707 281.60750436 -418.65350329 245.00589121 -394.4609375 211.203125 C-393.9129248 210.43726074 -393.36491211 209.67139648 -392.80029297 208.88232422 C-386.17425362 199.66726586 -379.40152604 190.66786383 -371.95703125 182.09765625 C-369.63932064 179.40998244 -367.42013557 176.66754995 -365.2109375 173.890625 C-355.89168361 162.48398972 -345.40848646 152.06601171 -335.0234375 141.640625 C-334.19545654 140.80797119 -333.36747559 139.97531738 -332.5144043 139.11743164 C-327.6571102 134.27285426 -322.67462731 129.65986634 -317.4609375 125.203125 C-316.37788745 124.25376518 -315.29580764 123.303297 -314.21484375 122.3515625 C-305.27115407 114.55104075 -295.96581939 107.30455021 -286.4609375 100.203125 C-285.80947754 99.71424805 -285.15801758 99.22537109 -284.48681641 98.72167969 C-267.52294264 86.01501499 -249.76862298 74.88236858 -231.4609375 64.203125 C-230.5548877 63.67428711 -229.64883789 63.14544922 -228.71533203 62.60058594 C-203.63812903 48.11027666 -176.82938985 36.58381697 -149.4609375 27.203125 C-148.35540527 26.81962891 -147.24987305 26.43613281 -146.11083984 26.04101562 C-113.03317994 14.65760997 -78.85647569 7.1741082 -44.1484375 2.953125 C-43.46378418 2.86985962 -42.77913086 2.78659424 -42.07373047 2.70080566 C-28.05304217 1.01801849 -14.12741281 0.04806443 0 0 Z " fill="#BED62F" transform="translate(466.4609375,-0.203125)"/>
<path d="M0 0 C21.87001984 -0.17603987 44.03670698 1.97581376 64.14770508 11.04443359 C65.0784082 11.46208984 66.00911133 11.87974609 66.96801758 12.31005859 C83.1313102 20.322631 94.24946421 34.71025703 101.14770508 51.04443359 C108.08665789 72.57038209 106.99285287 97.57829756 97.14770508 118.04443359 C86.37365434 138.00336259 68.15242082 151.57432625 46.6796875 158.22436523 C24.77608352 164.46704898 1.7139451 165.8652136 -20.85229492 163.04443359 C-20.85229492 194.72443359 -20.85229492 226.40443359 -20.85229492 259.04443359 C-36.69229492 259.04443359 -52.53229492 259.04443359 -68.85229492 259.04443359 C-68.85229492 175.55443359 -68.85229492 92.06443359 -68.85229492 6.04443359 C-61.66161585 4.24676382 -54.99285513 3.22671902 -47.66479492 2.48193359 C-45.77591553 2.28796997 -45.77591553 2.28796997 -43.84887695 2.09008789 C-29.25946759 0.67637141 -14.65303847 0.22826783 0 0 Z M-20.85229492 35.04443359 C-20.85229492 63.42443359 -20.85229492 91.80443359 -20.85229492 121.04443359 C0.40687692 124.31507542 22.80153005 124.97611793 41.08911133 111.75537109 C50.21404434 104.17146093 55.62811944 94.89720161 57.14770508 83.04443359 C58.03766235 71.12484193 56.7805383 59.27109929 48.84301758 49.81787109 C37.50486313 37.95722105 24.50964022 33.57177805 8.21020508 32.87646484 C6.85607366 32.86472382 5.50188677 32.85823319 4.14770508 32.85693359 C3.18670898 32.83856445 3.18670898 32.83856445 2.20629883 32.81982422 C-5.66417967 32.79742248 -12.8646789 34.04598159 -20.85229492 35.04443359 Z " fill="#939598" transform="translate(156.852294921875,347.95556640625)"/>
<path d="M0 0 C14.92240518 14.19045176 20.97432345 33.91980028 21.85324097 54.12316322 C21.90400504 56.65766445 21.92740809 59.19084975 21.93945312 61.72583008 C21.95189308 63.15727859 21.95189308 63.15727859 21.96458435 64.61764526 C21.98188649 66.67676518 21.99707941 68.73590371 22.01036072 70.79505348 C22.03160026 74.07359704 22.05861097 77.35205027 22.08703613 80.63053894 C22.14648392 87.6078232 22.19863937 94.5851522 22.25 101.5625 C22.30966797 109.61921336 22.37246069 117.6758835 22.44187927 125.73251915 C22.46799321 128.92695554 22.48909045 132.12139746 22.5098877 135.31587219 C22.52653531 137.32752681 22.54341082 139.33917956 22.56054688 141.35083008 C22.56473129 142.20920975 22.56891571 143.06758942 22.57322693 143.95198059 C22.6661836 153.5813269 23.26768868 163.10377351 23.75 172.75 C9.56 172.75 -4.63 172.75 -19.25 172.75 C-20.24 166.81 -21.23 160.87 -22.25 154.75 C-23.178125 155.595625 -24.10625 156.44125 -25.0625 157.3125 C-42.2127421 171.94369245 -62.8840191 178.26135676 -85.25 176.75 C-101.3331865 174.52259332 -116.06008433 167.76644705 -126.25 154.75 C-135.56768024 139.69559889 -138.75661088 124.11081655 -135.59765625 106.53515625 C-131.5257648 89.60098108 -121.91243474 76.8976795 -107.25 67.75 C-82.84577507 53.77015796 -53.94497609 50.28583839 -26.25 50.75 C-27.62643579 40.04640066 -29.24016782 31.27259826 -37.96875 24.25390625 C-51.62210745 15.25297711 -68.70104678 16.656213 -84.03125 19.76953125 C-93.38126432 21.84659474 -102.42693752 24.76429466 -110.61328125 29.83203125 C-112.25 30.75 -112.25 30.75 -114.25 30.75 C-115.53718413 26.67657953 -116.8187739 22.60145429 -118.09521484 18.5246582 C-118.5302045 17.13810838 -118.96671763 15.75203555 -119.40478516 14.36645508 C-120.0342914 12.37444608 -120.6582939 10.38078441 -121.28125 8.38671875 C-121.65830078 7.18748779 -122.03535156 5.98825684 -122.42382812 4.75268555 C-123.25 1.75 -123.25 1.75 -123.25 -1.25 C-88.63228239 -20.91519084 -32.23981492 -27.53716523 0 0 Z M-82.18359375 97.41015625 C-87.10300607 102.9805305 -88.92616983 108.62116528 -89.5 115.9375 C-88.98336206 123.81622861 -86.73838264 131.76156097 -80.671875 137.15234375 C-73.88174593 142.07376083 -65.90351971 143.15310094 -57.6875 142.44140625 C-46.3602032 140.44174092 -37.80199974 135.58367741 -30.78515625 126.44921875 C-25.31219885 116.82628348 -24.7366096 108.44388495 -25 97.625 C-25.02010961 96.17710823 -25.03835245 94.72918927 -25.0546875 93.28125 C-25.09829847 89.77025873 -25.1670743 86.2603088 -25.25 82.75 C-45.6202207 82.17062529 -66.59562027 82.3726409 -82.18359375 97.41015625 Z " fill="#939598" transform="translate(519.25,430.25)"/>
<path d="M0 0 C14.83522181 12.84513108 23.19662941 28.94781558 27.4375 47.96875 C27.61482666 48.72849121 27.79215332 49.48823242 27.97485352 50.27099609 C29.55495174 57.76302168 29.71299171 65.14163452 29.64331055 72.76855469 C29.62484382 74.8614502 29.62280305 76.95390574 29.62304688 79.046875 C29.6031181 84.5117442 29.51549694 89.57876528 28.4375 94.96875 C-12.4825 94.96875 -53.4025 94.96875 -95.5625 94.96875 C-92.95384903 108.01200485 -90.32597922 120.509952 -79.15625 128.7421875 C-65.54728207 137.8020903 -52.74354844 140.35339683 -36.5625 140.28125 C-35.28028564 140.27706055 -33.99807129 140.27287109 -32.67700195 140.26855469 C-22.69846351 140.15039854 -13.26743288 139.2515861 -3.5625 136.96875 C-2.80501465 136.79230957 -2.0475293 136.61586914 -1.26708984 136.43408203 C3.32096621 135.34977113 7.88430093 134.19079389 12.4375 132.96875 C14.62590808 138.86615019 15.83443912 144.95347458 17.125 151.09375 C17.36283203 152.17785156 17.60066406 153.26195312 17.84570312 154.37890625 C18.17538086 155.94318359 18.17538086 155.94318359 18.51171875 157.5390625 C18.71369873 158.48539551 18.91567871 159.43172852 19.1237793 160.40673828 C19.44064146 162.99440484 19.44077242 164.56935752 18.4375 166.96875 C-11.42333692 181.58059623 -53.96831616 182.22139825 -85 172.21875 C-105.92272378 165.02389039 -122.33040165 150.54789179 -132.5625 130.96875 C-145.12763687 104.06039086 -145.59226562 70.78185828 -135.54223633 42.97338867 C-126.28922475 19.13968638 -110.16523466 0.57013821 -86.5625 -9.84375 C-58.71428725 -20.78411929 -23.92231315 -18.9628092 0 0 Z M-81.79296875 28.23046875 C-89.5201281 37.46536651 -95.5625 48.72828573 -95.5625 60.96875 C-69.1625 60.96875 -42.7625 60.96875 -15.5625 60.96875 C-15.5625 48.07738574 -18.29348718 36.22727634 -27.375 26.59375 C-31.1006644 23.12019822 -34.82633903 20.80522058 -39.5625 18.96875 C-40.614375 18.55625 -41.66625 18.14375 -42.75 17.71875 C-56.86572832 14.94188541 -71.44722759 17.7397785 -81.79296875 28.23046875 Z " fill="#939598" transform="translate(886.5625,429.03125)"/>
<path d="M0 0 C-1.09344678 4.80767046 -2.19634356 9.61303564 -3.30810547 14.41650391 C-3.68507088 16.05131946 -4.05943422 17.68673726 -4.43115234 19.32275391 C-4.96551556 21.6725271 -5.50916048 24.01998448 -6.0546875 26.3671875 C-6.301689 27.46726639 -6.301689 27.46726639 -6.55368042 28.58956909 C-7.77225659 33.77225659 -7.77225659 33.77225659 -10 36 C-10.67804688 35.73445313 -11.35609375 35.46890625 -12.0546875 35.1953125 C-12.98539063 34.84210938 -13.91609375 34.48890625 -14.875 34.125 C-15.77992188 33.77695312 -16.68484375 33.42890625 -17.6171875 33.0703125 C-33.39597957 28.07794642 -53.72770528 26.95481397 -69 34 C-70.19689453 34.5259375 -70.19689453 34.5259375 -71.41796875 35.0625 C-84.26570702 41.43108627 -92.77982998 52.43286732 -97.3828125 65.7890625 C-102.67057999 83.10661036 -101.19159861 101.90013748 -93.8125 118.375 C-87.00890107 130.7168944 -75.48066433 140.00200864 -62 144 C-44.7668053 148.14829308 -27.50845514 145.87589081 -11 140 C-9.68 140 -8.36 140 -7 140 C-6.13926926 144.17965658 -5.28498026 148.36056357 -4.43652344 152.54272461 C-4.14725708 153.96398019 -3.85626228 155.38488517 -3.56347656 156.80541992 C-3.14188262 158.85244491 -2.72660984 160.90066833 -2.3125 162.94921875 C-1.93544922 164.79519653 -1.93544922 164.79519653 -1.55078125 166.6784668 C-1.07606364 169.54129177 -0.88486878 172.10972674 -1 175 C-27.60715216 188.30357608 -62.76007719 188.42478394 -90.75 179.8125 C-113.48498223 171.55855371 -130.37962987 157.27001272 -141.24780273 135.43261719 C-153.34290423 109.43846167 -153.328126 77.62894693 -143.625 50.9375 C-139.59939783 41.3521485 -134.67572965 32.96227284 -128 25 C-127.42894531 24.27167969 -126.85789062 23.54335938 -126.26953125 22.79296875 C-110.54699961 3.65103791 -84.98198674 -6.02397365 -60.9765625 -8.72265625 C-40.75801774 -10.13279051 -18.34715083 -9.45498333 0 0 Z " fill="#939598" transform="translate(727,422)"/>
<path d="M0 0 C15.84 0 31.68 0 48 0 C48 87.45 48 174.9 48 265 C32.16 265 16.32 265 0 265 C0 177.55 0 90.1 0 0 Z " fill="#939598" transform="translate(298,342)"/>
<path d="M0 0 C16.17 0 32.34 0 49 0 C49 61.71 49 123.42 49 187 C32.83 187 16.66 187 0 187 C0 125.29 0 63.58 0 0 Z " fill="#939598" transform="translate(3,420)"/>
<path d="M0 0 C6.14714825 3.91085811 10.3554647 8.83599309 12 16 C12.74587893 23.21793256 13.34396146 30.90359751 9.390625 37.29296875 C4.75777269 42.9799251 -0.64493557 47.65617094 -8 49 C-18.26267218 49.97161393 -25.9722999 48.85510925 -34.3125 42.75 C-39.80854291 37.12614214 -41.64923402 31.06888538 -42.3125 23.375 C-42.17892656 16.3089649 -39.6544471 9.34638786 -34.9375 4.0625 C-25.27769868 -4.52399007 -11.43335105 -5.24962687 0 0 Z " fill="#939598" transform="translate(42,345)"/>
</svg>
