<?xml version="1.0" encoding="utf-8"?>
<!-- Generator: Adobe Illustrator 27.2.0, SVG Export Plug-In . SVG Version: 6.00 Build 0)  -->
<svg version="1.1" id="Layer_1" xmlns="http://www.w3.org/2000/svg" xmlns:xlink="http://www.w3.org/1999/xlink" x="0px" y="0px"
	 viewBox="0 0 120 29" style="enable-background:new 0 0 120 29;" xml:space="preserve">
<style type="text/css">
	.st0{fill-rule:evenodd;clip-rule:evenodd;fill:#DA0000;}
</style>
<path class="st0" d="M23.9,11.7L37.8,0H26.7c-2.5,0-3.9,1.3-3.9,1.3L9.4,12.6V0H0v28.7h9.4V24l7.2-6.1l7.6,9.2c0,0,1.2,1.6,3.8,1.6
	h10.1L23.9,11.7z M105.8,0h-11c-7.9,0-14.2,6.4-14.2,14.3c0,7.9,6.4,14.3,14.2,14.3h11c7.9,0,14.2-6.4,14.2-14.3
	C120,6.4,113.6,0,105.8,0z M105.8,19.2h-11c-2.6,0-4.8-2.2-4.8-4.9c0-2.7,2.2-4.9,4.8-4.9h11c2.6,0,4.8,2.2,4.8,4.9
	C110.6,17.1,108.4,19.2,105.8,19.2z M40.4,9.5V0h38.1v9.5H64.2v19.2h-9.4V9.5H40.4z"/>
</svg>
